<mxfile host="app.diagrams.net" modified="2024-04-22T22:15:45.494Z" agent="Mozilla/5.0 (X11; Linux x86_64) AppleWebKit/537.36 (KHTML, like Gecko) Chrome/124.0.0.0 Safari/537.36" version="24.2.8" etag="4ghX3RnaKJTuFCHSG4MV" type="github">
  <diagram name="Page-1" id="Uq_Zk0IRN_oIXsr8gElt">
    <mxGraphModel>
      <root>
        <mxCell id="0" />
        <mxCell id="1" parent="0" />
      </root>
    </mxGraphModel>
  </diagram>
</mxfile>
